<?xml version="1.0" encoding="UTF-8" standalone="no"?>
<svg
   xmlns:dc="http://purl.org/dc/elements/1.1/"
   xmlns:cc="http://creativecommons.org/ns#"
   xmlns:rdf="http://www.w3.org/1999/02/22-rdf-syntax-ns#"
   xmlns:svg="http://www.w3.org/2000/svg"
   xmlns="http://www.w3.org/2000/svg"
   
   
   viewBox="0 0 270.93333 270.93334"
   version="1.1"
   id="svg8">
  <defs
     id="defs2" />
  <metadata
     id="metadata5">
    <rdf:RDF>
      <cc:Work
         rdf:about="">
        <dc:format>image/svg+xml</dc:format>
        <dc:type
           rdf:resource="http://purl.org/dc/dcmitype/StillImage" />
        <dc:title></dc:title>
      </cc:Work>
    </rdf:RDF>
  </metadata>
  <g
     id="layer1">
    <path
       id="path1642"
       style="color:#000000;font-style:normal;font-variant:normal;font-weight:normal;font-stretch:normal;font-size:medium;line-height:normal;font-family:sans-serif;font-variant-ligatures:normal;font-variant-position:normal;font-variant-caps:normal;font-variant-numeric:normal;font-variant-alternates:normal;font-variant-east-asian:normal;font-feature-settings:normal;font-variation-settings:normal;text-indent:0;text-align:start;text-decoration:none;text-decoration-line:none;text-decoration-style:solid;text-decoration-color:#000000;letter-spacing:normal;word-spacing:normal;text-transform:none;writing-mode:lr-tb;direction:ltr;text-orientation:mixed;dominant-baseline:auto;baseline-shift:baseline;text-anchor:start;white-space:normal;shape-padding:0;shape-margin:0;inline-size:0;clip-rule:nonzero;display:inline;overflow:visible;visibility:visible;opacity:1;isolation:auto;mix-blend-mode:normal;color-interpolation:sRGB;color-interpolation-filters:linearRGB;solid-color:#000000;solid-opacity:1;vector-effect:none;fill:#000000;fill-opacity:1;fill-rule:nonzero;stroke:none;stroke-width:128;stroke-linecap:round;stroke-linejoin:bevel;stroke-miterlimit:4;stroke-dasharray:none;stroke-dashoffset:0;stroke-opacity:1;color-rendering:auto;image-rendering:auto;shape-rendering:auto;text-rendering:auto;enable-background:accumulate;stop-color:#000000;stop-opacity:1"
       d="M 63.896484 -0.001953125 A 64.000063 64.000063 0 0 0 18.742188 18.742188 A 64.000063 64.000063 0 0 0 18.742188 109.25195 L 421.48633 511.99805 L 18.742188 914.74219 A 64.000063 64.000063 0 0 0 18.742188 1005.2578 A 64.000063 64.000063 0 0 0 109.25195 1005.2578 L 511.99805 602.51172 L 914.74219 1005.2578 A 64.000063 64.000063 0 0 0 1005.2578 1005.2578 A 64.000063 64.000063 0 0 0 1005.2578 914.74219 L 602.51172 511.99805 L 1005.2578 109.25195 A 64.000063 64.000063 0 0 0 1005.2578 18.742188 A 64.000063 64.000063 0 0 0 960.56836 0 A 64.000063 64.000063 0 0 0 914.74219 18.742188 L 511.99805 421.48633 L 109.25195 18.742188 A 64.000063 64.000063 0 0 0 64.570312 0 A 64.000063 64.000063 0 0 0 63.896484 -0.001953125 z "
       transform="scale(0.26458333)" />
  </g>
</svg>
