<?xml version="1.0" encoding="UTF-8" standalone="no"?>
<svg
   xmlns:dc="http://purl.org/dc/elements/1.1/"
   xmlns:cc="http://creativecommons.org/ns#"
   xmlns:rdf="http://www.w3.org/1999/02/22-rdf-syntax-ns#"
   xmlns:svg="http://www.w3.org/2000/svg"
   xmlns="http://www.w3.org/2000/svg"
   
   
   viewBox="0 0 270.93333 270.93334"
   version="1.1"
   id="svg8">
  <defs
     id="defs2" />
  <metadata
     id="metadata5">
    <rdf:RDF>
      <cc:Work
         rdf:about="">
        <dc:format>image/svg+xml</dc:format>
        <dc:type
           rdf:resource="http://purl.org/dc/dcmitype/StillImage" />
        <dc:title></dc:title>
      </cc:Work>
    </rdf:RDF>
  </metadata>
  <g
     id="layer1">
    <path
       id="path1615"
       style="color:#000000;font-style:normal;font-variant:normal;font-weight:normal;font-stretch:normal;font-size:medium;line-height:normal;font-family:sans-serif;font-variant-ligatures:normal;font-variant-position:normal;font-variant-caps:normal;font-variant-numeric:normal;font-variant-alternates:normal;font-variant-east-asian:normal;font-feature-settings:normal;font-variation-settings:normal;text-indent:0;text-align:start;text-decoration:none;text-decoration-line:none;text-decoration-style:solid;text-decoration-color:#000000;letter-spacing:normal;word-spacing:normal;text-transform:none;writing-mode:lr-tb;direction:ltr;text-orientation:mixed;dominant-baseline:auto;baseline-shift:baseline;text-anchor:start;white-space:normal;shape-padding:0;shape-margin:0;inline-size:0;clip-rule:nonzero;display:inline;overflow:visible;visibility:visible;opacity:1;isolation:auto;mix-blend-mode:normal;color-interpolation:sRGB;color-interpolation-filters:linearRGB;solid-color:#000000;solid-opacity:1;vector-effect:none;fill:#000000;fill-opacity:1;fill-rule:nonzero;stroke:none;stroke-width:128;stroke-linecap:round;stroke-linejoin:round;stroke-miterlimit:4;stroke-dasharray:none;stroke-dashoffset:50;stroke-opacity:1;color-rendering:auto;image-rendering:auto;shape-rendering:auto;text-rendering:auto;enable-background:accumulate;stop-color:#000000;stop-opacity:1"
       d="M 724.14062 0 A 63.999874 63.999874 0 0 0 660.14062 64.001953 A 63.999874 63.999874 0 0 0 724.14062 128.00195 L 896 128.00195 L 896 896 L 724.14062 896 A 63.999874 63.999874 0 0 0 660.14062 960 A 63.999874 63.999874 0 0 0 724.14062 1024 L 960 1024 A 64.006272 64.006272 0 0 0 1024 960 L 1024 64.001953 A 64.006272 64.006272 0 0 0 960 0 L 724.14062 0 z M 438.33594 255.74609 A 64.000063 64.000063 0 0 0 406.68359 264.32422 A 64.000063 64.000063 0 0 0 383.25977 351.74609 L 438.83398 448 L 64.001953 448 A 64.000063 64.000063 0 0 0 0 512 A 64.000063 64.000063 0 0 0 64.001953 576.00195 L 438.83203 576.00195 L 383.25977 672.25391 A 64.000063 64.000063 0 0 0 406.68359 759.67773 A 64.000063 64.000063 0 0 0 494.11328 736.25586 L 605.10742 544 A 64.006461 64.006461 0 0 0 605.10742 480 L 494.11328 287.74609 A 64.000063 64.000063 0 0 0 439.00781 255.74609 A 64.000063 64.000063 0 0 0 438.33594 255.74609 z "
       transform="scale(0.26458333)" />
  </g>
</svg>
