<?xml version="1.0" encoding="UTF-8" standalone="no"?>
<svg
   xmlns:dc="http://purl.org/dc/elements/1.1/"
   xmlns:cc="http://creativecommons.org/ns#"
   xmlns:rdf="http://www.w3.org/1999/02/22-rdf-syntax-ns#"
   xmlns:svg="http://www.w3.org/2000/svg"
   xmlns="http://www.w3.org/2000/svg"
   id="svg8"
   version="1.1"
   viewBox="0 0 270.93333 270.93334"
   
   >
  <defs
     id="defs2" />
  <metadata
     id="metadata5">
    <rdf:RDF>
      <cc:Work
         rdf:about="">
        <dc:format>image/svg+xml</dc:format>
        <dc:type
           rdf:resource="http://purl.org/dc/dcmitype/StillImage" />
        <dc:title></dc:title>
      </cc:Work>
    </rdf:RDF>
  </metadata>
  <g
     id="layer1">
    <path
       d="M 135.46667,2.5e-6 C 60.851052,6.1152829e-7 6.5152828e-7,60.851051 2.54e-6,135.46666 c 0,74.61561 60.85104946,135.46667 135.46666746,135.46667 74.61561,0 135.46666,-60.85106 135.46666,-135.46667 C 270.93333,60.851051 210.08228,2.5e-6 135.46667,2.5e-6 Z m 0,33.8671815 c 56.31269,0 101.6,45.286792 101.6,101.599476 0,56.31269 -45.28731,101.6 -101.6,101.6 -56.312693,0 -101.599485,-45.28731 -101.599485,-101.6 0,-56.312687 45.286789,-101.599476 101.599485,-101.599476 z"
       style="color:#000000;font-style:normal;font-variant:normal;font-weight:normal;font-stretch:normal;font-size:medium;line-height:normal;font-family:sans-serif;font-variant-ligatures:normal;font-variant-position:normal;font-variant-caps:normal;font-variant-numeric:normal;font-variant-alternates:normal;font-variant-east-asian:normal;font-feature-settings:normal;font-variation-settings:normal;text-indent:0;text-align:start;text-decoration:none;text-decoration-line:none;text-decoration-style:solid;text-decoration-color:#000000;letter-spacing:normal;word-spacing:normal;text-transform:none;writing-mode:lr-tb;direction:ltr;text-orientation:mixed;dominant-baseline:auto;baseline-shift:baseline;text-anchor:start;white-space:normal;shape-padding:0;shape-margin:0;inline-size:0;clip-rule:nonzero;display:inline;overflow:visible;visibility:visible;opacity:1;isolation:auto;mix-blend-mode:normal;color-interpolation:sRGB;color-interpolation-filters:linearRGB;solid-color:#000000;solid-opacity:1;vector-effect:none;fill:#000000;fill-opacity:1;fill-rule:nonzero;stroke:none;stroke-width:33.8667;stroke-linecap:round;stroke-linejoin:round;stroke-miterlimit:4;stroke-dasharray:none;stroke-dashoffset:50;stroke-opacity:1;color-rendering:auto;image-rendering:auto;shape-rendering:auto;text-rendering:auto;enable-background:accumulate;stop-color:#000000;stop-opacity:1"
       id="path1693" />
    <path
       id="rect2949"
       style="fill:#000000;stroke-width:33.8667;stroke-linecap:round;stroke-linejoin:round;stroke-miterlimit:4;stroke-dasharray:none;stroke-dashoffset:50"
       d="m 180.2512,73.72005 a 16.93335,16.93335 0 0 0 -11.945,4.959906 l -10.42831,10.427787 23.94738,23.947367 10.4283,-10.42778 a 16.93335,16.93335 0 0 0 0.0548,-23.892082 16.93335,16.93335 0 0 0 -0.0548,-0.05529 16.93335,16.93335 0 0 0 -11.8246,-4.958871 16.93335,16.93335 0 0 0 -0.17777,-10e-4 z m -33.83824,26.85263 -72.692735,72.69271 v 23.94789 h 23.946866 l 72.693239,-72.69324 z" />
  </g>
</svg>
