<?xml version="1.0" encoding="UTF-8" standalone="no"?>
<svg
   xmlns:dc="http://purl.org/dc/elements/1.1/"
   xmlns:cc="http://creativecommons.org/ns#"
   xmlns:rdf="http://www.w3.org/1999/02/22-rdf-syntax-ns#"
   xmlns:svg="http://www.w3.org/2000/svg"
   xmlns="http://www.w3.org/2000/svg"
   
   
   viewBox="0 0 270.93333 270.93334"
   version="1.1"
   id="svg8">
  <defs
     id="defs2" />
  <metadata
     id="metadata5">
    <rdf:RDF>
      <cc:Work
         rdf:about="">
        <dc:format>image/svg+xml</dc:format>
        <dc:type
           rdf:resource="http://purl.org/dc/dcmitype/StillImage" />
        <dc:title></dc:title>
      </cc:Work>
    </rdf:RDF>
  </metadata>
  <g
     id="layer1">
    <path
       transform="scale(0.26458333)"
       id="path1693"
       style="color:#000000;font-style:normal;font-variant:normal;font-weight:normal;font-stretch:normal;font-size:medium;line-height:normal;font-family:sans-serif;font-variant-ligatures:normal;font-variant-position:normal;font-variant-caps:normal;font-variant-numeric:normal;font-variant-alternates:normal;font-variant-east-asian:normal;font-feature-settings:normal;font-variation-settings:normal;text-indent:0;text-align:start;text-decoration:none;text-decoration-line:none;text-decoration-style:solid;text-decoration-color:#000000;letter-spacing:normal;word-spacing:normal;text-transform:none;writing-mode:lr-tb;direction:ltr;text-orientation:mixed;dominant-baseline:auto;baseline-shift:baseline;text-anchor:start;white-space:normal;shape-padding:0;shape-margin:0;inline-size:0;clip-rule:nonzero;display:inline;overflow:visible;visibility:visible;opacity:1;isolation:auto;mix-blend-mode:normal;color-interpolation:sRGB;color-interpolation-filters:linearRGB;solid-color:#000000;solid-opacity:1;vector-effect:none;fill:#000000;fill-opacity:1;fill-rule:nonzero;stroke:none;stroke-width:128;stroke-linecap:round;stroke-linejoin:round;stroke-miterlimit:4;stroke-dasharray:none;stroke-dashoffset:50;stroke-opacity:1;color-rendering:auto;image-rendering:auto;shape-rendering:auto;text-rendering:auto;enable-background:accumulate;stop-color:#000000;stop-opacity:1"
       d="M 512 0 C 229.98822 -7.1375308e-06 -7.1375309e-06 229.98822 0 512 C 0 794.01175 229.98822 1024 512 1024 C 794.01175 1024 1024 794.01175 1024 512 C 1024 229.98822 794.01175 -7.5791225e-14 512 0 z M 512 128.00195 C 724.83536 128.00195 896 299.16463 896 512 C 896 724.83536 724.83536 896 512 896 C 299.16463 896 128.00195 724.83536 128.00195 512 C 128.00195 299.16462 299.16462 128.00195 512 128.00195 z M 512.00391 229.43945 A 64.000002 64.000002 0 0 0 448.00195 293.44141 L 448.00195 401.14844 L 354.7168 347.29102 A 64.000063 64.000063 0 0 0 322.22852 338.7207 A 64.000063 64.000063 0 0 0 267.29297 370.72266 A 64.000063 64.000063 0 0 0 290.72266 458.14648 L 384 512 L 290.72266 565.85547 A 64.000063 64.000063 0 0 0 267.29297 653.2793 A 64.000063 64.000063 0 0 0 354.7168 676.70898 L 448.00195 622.85156 L 448.00195 730.55859 A 64.000002 64.000002 0 0 0 512.00391 794.56055 A 64.000002 64.000002 0 0 0 575.99609 730.55859 L 575.99609 622.84961 L 669.28125 676.70898 A 64.000063 64.000063 0 0 0 756.70508 653.2793 A 64.000063 64.000063 0 0 0 733.2832 565.85547 L 640.00391 512 L 733.2832 458.14648 A 64.000063 64.000063 0 0 0 756.70508 370.72266 A 64.000063 64.000063 0 0 0 701.59961 338.7207 A 64.000063 64.000063 0 0 0 669.28125 347.29102 L 575.99609 401.15039 L 575.99609 293.44141 A 64.000002 64.000002 0 0 0 512.00391 229.43945 z " />
  </g>
</svg>
